<?xml version="1.0" encoding="UTF-8" standalone="no"?>
<!DOCTYPE svg PUBLIC "-//W3C//DTD SVG 1.1//EN"
 "http://www.w3.org/Graphics/SVG/1.1/DTD/svg11.dtd">
<!-- Generated by graphviz version 2.43.0 (0)
 -->
<!-- Title: G Pages: 1 -->
<svg width="578pt" height="477pt"
 viewBox="0.00 0.00 578.00 477.00" xmlns="http://www.w3.org/2000/svg" xmlns:xlink="http://www.w3.org/1999/xlink">
<g id="graph0" class="graph" transform="scale(1 1) rotate(0) translate(4 473)">
<title>G</title>
<polygon fill="white" stroke="transparent" points="-4,4 -4,-473 574,-473 574,4 -4,4"/>
<g id="clust1" class="cluster">
<title>cluster0</title>
<polygon fill="none" stroke="black" points="8,-8 8,-461 562,-461 562,-8 8,-8"/>
<text text-anchor="middle" x="285" y="-15.8" font-family="Times,serif" font-size="14.00">add user</text>
</g>
<!-- add_front -->
<g id="node1" class="node">
<title>add_front</title>
<polygon fill="none" stroke="black" points="332,-75 212,-75 212,-39 332,-39 332,-75"/>
<text text-anchor="middle" x="272" y="-53.3" font-family="Times,serif" font-size="14.00">new_user.html</text>
</g>
<!-- add_back -->
<g id="node2" class="node">
<title>add_back</title>
<polygon fill="none" stroke="black" points="130,-177 16,-177 16,-141 130,-141 130,-177"/>
<text text-anchor="middle" x="73" y="-155.3" font-family="Times,serif" font-size="14.00">new_user.php</text>
</g>
<!-- add_front&#45;&gt;add_back -->
<g id="edge7" class="edge">
<title>add_front&#45;&gt;add_back</title>
<path fill="none" stroke="black" d="M211.75,-61.41C162.62,-65.52 98.58,-74.36 81,-93 71.74,-102.82 69.35,-117.52 69.45,-130.45"/>
<polygon fill="black" stroke="black" points="65.97,-130.97 70.02,-140.76 72.96,-130.58 65.97,-130.97"/>
<text text-anchor="middle" x="147.5" y="-111.8" font-family="Times,serif" font-size="14.00">7: Request to </text>
<text text-anchor="middle" x="147.5" y="-96.8" font-family="Times,serif" font-size="14.00">apply new account</text>
</g>
<!-- send_code -->
<g id="node3" class="node">
<title>send_code</title>
<polygon fill="none" stroke="black" points="272.5,-177 165.5,-177 165.5,-141 272.5,-141 272.5,-177"/>
<text text-anchor="middle" x="219" y="-155.3" font-family="Times,serif" font-size="14.00">send_code.js</text>
</g>
<!-- add_front&#45;&gt;send_code -->
<g id="edge2" class="edge">
<title>add_front&#45;&gt;send_code</title>
<path fill="none" stroke="black" d="M242.98,-75.12C236.77,-80.11 230.91,-86.11 227,-93 220.58,-104.32 218.3,-118.51 217.74,-130.75"/>
<polygon fill="black" stroke="black" points="214.24,-130.83 217.64,-140.87 221.24,-130.91 214.24,-130.83"/>
<text text-anchor="middle" x="270" y="-111.8" font-family="Times,serif" font-size="14.00">2: Click </text>
<text text-anchor="middle" x="270" y="-96.8" font-family="Times,serif" font-size="14.00">&quot;send SMS&quot;</text>
</g>
<!-- database -->
<g id="node7" class="node">
<title>database</title>
<ellipse fill="none" stroke="black" cx="55" cy="-261" rx="38.99" ry="18"/>
<text text-anchor="middle" x="55" y="-257.3" font-family="Times,serif" font-size="14.00">Mysql</text>
</g>
<!-- add_back&#45;&gt;database -->
<g id="edge8" class="edge">
<title>add_back&#45;&gt;database</title>
<path fill="none" stroke="black" d="M48.29,-177.19C42.91,-182.25 37.95,-188.26 35,-195 29.65,-207.21 31.58,-212.11 35,-225 35.86,-228.25 37.1,-231.51 38.55,-234.66"/>
<polygon fill="black" stroke="black" points="35.57,-236.5 43.35,-243.68 41.75,-233.21 35.57,-236.5"/>
<text text-anchor="middle" x="112.5" y="-206.3" font-family="Times,serif" font-size="14.00">8: Insert new account</text>
</g>
<!-- api -->
<g id="node6" class="node">
<title>api</title>
<polygon fill="none" stroke="black" points="234,-279 112,-279 112,-243 234,-243 234,-279"/>
<text text-anchor="middle" x="173" y="-257.3" font-family="Times,serif" font-size="14.00">Third SMS API</text>
</g>
<!-- send_code&#45;&gt;api -->
<g id="edge3" class="edge">
<title>send_code&#45;&gt;api</title>
<path fill="none" stroke="black" d="M211.52,-177.18C205.75,-190.32 197.51,-208.87 190,-225 188.67,-227.85 187.27,-230.82 185.86,-233.77"/>
<polygon fill="black" stroke="black" points="182.61,-232.44 181.41,-242.96 188.91,-235.48 182.61,-232.44"/>
<text text-anchor="middle" x="252" y="-213.8" font-family="Times,serif" font-size="14.00">3: Request to </text>
<text text-anchor="middle" x="252" y="-198.8" font-family="Times,serif" font-size="14.00">send SMS</text>
</g>
<!-- user -->
<g id="node4" class="node">
<title>user</title>
<polygon fill="none" stroke="black" points="318.7,-453 241.23,-453 221.3,-417 298.77,-417 318.7,-453"/>
<text text-anchor="middle" x="270" y="-431.3" font-family="Times,serif" font-size="14.00">User</text>
</g>
<!-- user&#45;&gt;add_front -->
<g id="edge1" class="edge">
<title>user&#45;&gt;add_front</title>
<path fill="none" stroke="black" d="M269.56,-416.98C268.76,-376.01 268.4,-273.02 284,-243 289.82,-231.79 300.2,-236.22 306,-225 326.85,-184.63 311.44,-168.41 313,-123 313.46,-109.67 318.58,-105.11 313,-93 311.29,-89.28 308.96,-85.81 306.28,-82.61"/>
<polygon fill="black" stroke="black" points="308.55,-79.93 299.04,-75.24 303.55,-84.83 308.55,-79.93"/>
<text text-anchor="middle" x="338.5" y="-264.8" font-family="Times,serif" font-size="14.00">1: Input phone </text>
<text text-anchor="middle" x="338.5" y="-249.8" font-family="Times,serif" font-size="14.00">number</text>
</g>
<!-- user&#45;&gt;add_front -->
<g id="edge6" class="edge">
<title>user&#45;&gt;add_front</title>
<path fill="none" stroke="black" d="M305.47,-428.98C348.4,-420.67 415,-399.63 415,-349 415,-158 415,-158 415,-158 415,-118.65 378.19,-93.49 341.91,-78.24"/>
<polygon fill="black" stroke="black" points="342.82,-74.84 332.23,-74.39 340.23,-81.34 342.82,-74.84"/>
<text text-anchor="middle" x="484.5" y="-264.8" font-family="Times,serif" font-size="14.00">6: Click </text>
<text text-anchor="middle" x="484.5" y="-249.8" font-family="Times,serif" font-size="14.00">&quot;Apply for account&quot;</text>
</g>
<!-- phone -->
<g id="node5" class="node">
<title>phone</title>
<polygon fill="none" stroke="black" points="172.26,-366 79.58,-366 55.74,-330 148.42,-330 172.26,-366"/>
<text text-anchor="middle" x="114" y="-344.3" font-family="Times,serif" font-size="14.00">Phone</text>
</g>
<!-- phone&#45;&gt;user -->
<g id="edge5" class="edge">
<title>phone&#45;&gt;user</title>
<path fill="none" stroke="black" d="M120.73,-366.16C125.84,-377.07 133.9,-390.66 145,-399 166.12,-414.87 194.12,-423.55 218.26,-428.29"/>
<polygon fill="black" stroke="black" points="217.88,-431.78 228.34,-430.09 219.11,-424.89 217.88,-431.78"/>
<text text-anchor="middle" x="205" y="-387.8" font-family="Times,serif" font-size="14.00">5: Get SMS code</text>
</g>
<!-- api&#45;&gt;phone -->
<g id="edge4" class="edge">
<title>api&#45;&gt;phone</title>
<path fill="none" stroke="black" d="M123.43,-279.07C116.09,-283.75 109.49,-289.63 105,-297 100.8,-303.88 100.75,-312.22 102.42,-320.11"/>
<polygon fill="black" stroke="black" points="99.06,-321.11 105.27,-329.7 105.77,-319.12 99.06,-321.11"/>
<text text-anchor="middle" x="185" y="-300.8" font-family="Times,serif" font-size="14.00">4: Send SMS to phone</text>
</g>
</g>
</svg>
