<?xml version="1.0" encoding="UTF-8" standalone="no"?>
<!DOCTYPE svg PUBLIC "-//W3C//DTD SVG 1.1//EN"
 "http://www.w3.org/Graphics/SVG/1.1/DTD/svg11.dtd">
<!-- Generated by graphviz version 2.43.0 (0)
 -->
<!-- Title: %3 Pages: 1 -->
<svg width="473pt" height="181pt"
 viewBox="0.00 0.00 473.00 181.00" xmlns="http://www.w3.org/2000/svg" xmlns:xlink="http://www.w3.org/1999/xlink">
<g id="graph0" class="graph" transform="scale(1 1) rotate(0) translate(4 177)">
<title>%3</title>
<polygon fill="white" stroke="transparent" points="-4,4 -4,-177 469,-177 469,4 -4,4"/>
<text text-anchor="middle" x="232.5" y="-7.8" font-family="Times,serif" font-size="14.00">前端的架构</text>
<!-- index -->
<g id="node1" class="node">
<title>index</title>
<polygon fill="none" stroke="black" points="440,-148 347,-148 347,-112 440,-112 440,-148"/>
<text text-anchor="middle" x="393.5" y="-126.3" font-family="Times,serif" font-size="14.00">index.html</text>
</g>
<!-- index_phone -->
<g id="node2" class="node">
<title>index_phone</title>
<polygon fill="none" stroke="black" points="465,-83 322,-83 322,-47 465,-47 465,-83"/>
<text text-anchor="middle" x="393.5" y="-61.3" font-family="Times,serif" font-size="14.00">index_phone.html</text>
</g>
<!-- eye -->
<g id="node3" class="node">
<title>eye</title>
<polygon fill="none" stroke="black" points="77,-173 19,-173 19,-137 77,-137 77,-173"/>
<text text-anchor="middle" x="48" y="-151.3" font-family="Times,serif" font-size="14.00">eye.js</text>
</g>
<!-- eye&#45;&gt;index -->
<g id="edge1" class="edge">
<title>eye&#45;&gt;index</title>
<path fill="none" stroke="black" d="M77.11,-152.95C133.73,-148.83 262.44,-139.47 336.75,-134.06"/>
<polygon fill="black" stroke="black" points="337.14,-137.54 346.86,-133.32 336.63,-130.56 337.14,-137.54"/>
<text text-anchor="middle" x="209" y="-153.8" font-family="Times,serif" font-size="14.00">提供展示/屏蔽密码明文的功能</text>
</g>
<!-- get_code -->
<g id="node4" class="node">
<title>get_code</title>
<polygon fill="none" stroke="black" points="96,-59 0,-59 0,-23 96,-23 96,-59"/>
<text text-anchor="middle" x="48" y="-37.3" font-family="Times,serif" font-size="14.00">get_code.js</text>
</g>
<!-- get_code&#45;&gt;index_phone -->
<g id="edge4" class="edge">
<title>get_code&#45;&gt;index_phone</title>
<path fill="none" stroke="black" d="M96.23,-37.67C147.6,-34.87 232,-32.65 304,-42 309.51,-42.72 315.17,-43.66 320.83,-44.77"/>
<polygon fill="black" stroke="black" points="320.49,-48.28 330.99,-46.92 321.93,-41.43 320.49,-48.28"/>
<text text-anchor="middle" x="209" y="-45.8" font-family="Times,serif" font-size="14.00">提供对手机号码格式的验证</text>
</g>
<!-- slides -->
<g id="node5" class="node">
<title>slides</title>
<polygon fill="none" stroke="black" points="85,-116 11,-116 11,-80 85,-80 85,-116"/>
<text text-anchor="middle" x="48" y="-94.3" font-family="Times,serif" font-size="14.00">slides.js</text>
</g>
<!-- slides&#45;&gt;index -->
<g id="edge2" class="edge">
<title>slides&#45;&gt;index</title>
<path fill="none" stroke="black" d="M85.39,-99.89C134.94,-102.65 226.34,-108.41 304,-117 314.53,-118.16 325.73,-119.63 336.49,-121.16"/>
<polygon fill="black" stroke="black" points="336.25,-124.66 346.65,-122.63 337.25,-117.73 336.25,-124.66"/>
<text text-anchor="middle" x="209" y="-120.8" font-family="Times,serif" font-size="14.00">提供轮播图效果</text>
</g>
<!-- slides&#45;&gt;index_phone -->
<g id="edge3" class="edge">
<title>slides&#45;&gt;index_phone</title>
<path fill="none" stroke="black" d="M85.21,-87.86C94.52,-85.59 104.58,-83.44 114,-82 180.05,-71.94 255.76,-67.79 311.56,-66.09"/>
<polygon fill="black" stroke="black" points="311.84,-69.59 321.74,-65.8 311.64,-62.59 311.84,-69.59"/>
<text text-anchor="middle" x="209" y="-85.8" font-family="Times,serif" font-size="14.00">提供轮播图效果</text>
</g>
</g>
</svg>
