<?xml version="1.0" encoding="UTF-8" standalone="no"?>
<!DOCTYPE svg PUBLIC "-//W3C//DTD SVG 1.1//EN"
 "http://www.w3.org/Graphics/SVG/1.1/DTD/svg11.dtd">
<!-- Generated by graphviz version 2.43.0 (0)
 -->
<!-- Title: G Pages: 1 -->
<svg width="488pt" height="229pt"
 viewBox="0.00 0.00 488.00 229.00" xmlns="http://www.w3.org/2000/svg" xmlns:xlink="http://www.w3.org/1999/xlink">
<g id="graph0" class="graph" transform="scale(1 1) rotate(0) translate(4 225)">
<title>G</title>
<polygon fill="white" stroke="transparent" points="-4,4 -4,-225 484,-225 484,4 -4,4"/>
<text text-anchor="middle" x="240" y="-7.8" font-family="Times,serif" font-size="14.00">action available in login page</text>
<!-- login -->
<g id="node1" class="node">
<title>login</title>
<polygon fill="none" stroke="black" points="480,-140 397,-140 397,-104 480,-104 480,-140"/>
<text text-anchor="middle" x="438.5" y="-118.3" font-family="Times,serif" font-size="14.00">login.php</text>
</g>
<!-- delete -->
<g id="node2" class="node">
<title>delete</title>
<polygon fill="none" stroke="black" points="164.5,-221 9.5,-221 9.5,-185 164.5,-185 164.5,-221"/>
<text text-anchor="middle" x="87" y="-199.3" font-family="Times,serif" font-size="14.00">account_delete.php</text>
</g>
<!-- delete&#45;&gt;login -->
<g id="edge1" class="edge">
<title>delete&#45;&gt;login</title>
<path fill="none" stroke="black" d="M164.6,-200.03C224.57,-195.68 309.22,-185.03 379,-159 388.01,-155.64 397.11,-150.76 405.36,-145.65"/>
<polygon fill="black" stroke="black" points="407.46,-148.45 413.93,-140.06 403.64,-142.59 407.46,-148.45"/>
<text text-anchor="middle" x="285.5" y="-200.8" font-family="Times,serif" font-size="14.00">Support delete action</text>
</g>
<!-- change -->
<g id="node3" class="node">
<title>change</title>
<polygon fill="none" stroke="black" points="167.5,-167 6.5,-167 6.5,-131 167.5,-131 167.5,-167"/>
<text text-anchor="middle" x="87" y="-145.3" font-family="Times,serif" font-size="14.00">change_account.php</text>
</g>
<!-- change&#45;&gt;login -->
<g id="edge2" class="edge">
<title>change&#45;&gt;login</title>
<path fill="none" stroke="black" d="M167.74,-142.84C234.88,-137.65 328.91,-130.39 386.37,-125.95"/>
<polygon fill="black" stroke="black" points="386.96,-129.41 396.66,-125.15 386.42,-122.44 386.96,-129.41"/>
<text text-anchor="middle" x="285.5" y="-143.8" font-family="Times,serif" font-size="14.00">Support change action</text>
</g>
<!-- change_pass -->
<g id="node4" class="node">
<title>change_pass</title>
<polygon fill="none" stroke="black" points="174,-113 0,-113 0,-77 174,-77 174,-113"/>
<text text-anchor="middle" x="87" y="-91.3" font-family="Times,serif" font-size="14.00">password_change.php</text>
</g>
<!-- change_pass&#45;&gt;login -->
<g id="edge3" class="edge">
<title>change_pass&#45;&gt;login</title>
<path fill="none" stroke="black" d="M174.07,-93.83C232.23,-94.2 310.59,-96.93 379,-107 381.63,-107.39 384.32,-107.85 387.02,-108.36"/>
<polygon fill="black" stroke="black" points="386.3,-111.78 396.81,-110.4 387.74,-104.93 386.3,-111.78"/>
<text text-anchor="middle" x="285.5" y="-110.8" font-family="Times,serif" font-size="14.00">Support password change</text>
</g>
<!-- add_user -->
<g id="node5" class="node">
<title>add_user</title>
<polygon fill="none" stroke="black" points="127.5,-59 46.5,-59 46.5,-23 127.5,-23 127.5,-59"/>
<text text-anchor="middle" x="87" y="-37.3" font-family="Times,serif" font-size="14.00">add_user</text>
</g>
<!-- add_user&#45;&gt;login -->
<g id="edge4" class="edge">
<title>add_user&#45;&gt;login</title>
<path fill="none" stroke="black" d="M127.87,-38.85C185.6,-37.21 294.78,-39.73 379,-75 391.2,-80.11 402.93,-88.56 412.64,-96.9"/>
<polygon fill="black" stroke="black" points="410.52,-99.7 420.29,-103.8 415.21,-94.51 410.52,-99.7"/>
<text text-anchor="middle" x="285.5" y="-78.8" font-family="Times,serif" font-size="14.00">Support additon action</text>
</g>
</g>
</svg>
