<?xml version="1.0" encoding="UTF-8" standalone="no"?>
<!DOCTYPE svg PUBLIC "-//W3C//DTD SVG 1.1//EN"
 "http://www.w3.org/Graphics/SVG/1.1/DTD/svg11.dtd">
<!-- Generated by graphviz version 2.43.0 (0)
 -->
<!-- Title: G Pages: 1 -->
<svg width="925pt" height="430pt"
 viewBox="0.00 0.00 925.37 430.00" xmlns="http://www.w3.org/2000/svg" xmlns:xlink="http://www.w3.org/1999/xlink">
<g id="graph0" class="graph" transform="scale(1 1) rotate(0) translate(4 426)">
<title>G</title>
<polygon fill="white" stroke="transparent" points="-4,4 -4,-426 921.37,-426 921.37,4 -4,4"/>
<text text-anchor="middle" x="458.68" y="-7.8" font-family="Times,serif" font-size="14.00">Phone/SMS login diagram(FAILED)</text>
<!-- index_phone -->
<g id="node1" class="node">
<title>index_phone</title>
<polygon fill="none" stroke="black" points="428.87,-335 285.87,-335 285.87,-299 428.87,-299 428.87,-335"/>
<text text-anchor="middle" x="357.37" y="-313.3" font-family="Times,serif" font-size="14.00">index_phone.html</text>
</g>
<!-- get_code -->
<g id="node3" class="node">
<title>get_code</title>
<polygon fill="none" stroke="black" points="405.37,-248 309.37,-248 309.37,-212 405.37,-212 405.37,-248"/>
<text text-anchor="middle" x="357.37" y="-226.3" font-family="Times,serif" font-size="14.00">get_code.js</text>
</g>
<!-- index_phone&#45;&gt;get_code -->
<g id="edge2" class="edge">
<title>index_phone&#45;&gt;get_code</title>
<path fill="none" stroke="black" d="M301.31,-298.88C293.8,-294.25 287.08,-288.39 282.37,-281 273.65,-267.3 284.32,-256.49 300.1,-248.48"/>
<polygon fill="black" stroke="black" points="301.63,-251.63 309.3,-244.32 298.75,-245.25 301.63,-251.63"/>
<text text-anchor="middle" x="347.37" y="-269.8" font-family="Times,serif" font-size="14.00">2: Click send SMS</text>
</g>
<!-- val_phone -->
<g id="node2" class="node">
<title>val_phone</title>
<polygon fill="none" stroke="black" points="434.87,-161 279.87,-161 279.87,-125 434.87,-125 434.87,-161"/>
<text text-anchor="middle" x="357.37" y="-139.3" font-family="Times,serif" font-size="14.00">validate_phone.php</text>
</g>
<!-- val_phone&#45;&gt;get_code -->
<g id="edge9" class="edge">
<title>val_phone&#45;&gt;get_code</title>
<path fill="none" stroke="black" d="M429.47,-161.05C437.27,-165.67 444.23,-171.54 449.37,-179 462.23,-197.65 440.78,-209.98 415.37,-217.74"/>
<polygon fill="black" stroke="black" points="414.2,-214.43 405.51,-220.49 416.08,-221.18 414.2,-214.43"/>
<text text-anchor="middle" x="539.37" y="-182.8" font-family="Times,serif" font-size="14.00">8a/6b: Return error info</text>
</g>
<!-- api -->
<g id="node4" class="node">
<title>api</title>
<polygon fill="none" stroke="black" points="176.37,-59 54.37,-59 54.37,-23 176.37,-23 176.37,-59"/>
<text text-anchor="middle" x="115.37" y="-37.3" font-family="Times,serif" font-size="14.00">Third SMS API</text>
</g>
<!-- val_phone&#45;&gt;api -->
<g id="edge7" class="edge">
<title>val_phone&#45;&gt;api</title>
<path fill="none" stroke="black" d="M279.59,-139.67C181.77,-135.92 24.35,-126.86 6.37,-107 -2.58,-97.12 -1.49,-87.77 6.37,-77 15.64,-64.29 29.6,-56.09 44.46,-50.83"/>
<polygon fill="black" stroke="black" points="45.8,-54.08 54.32,-47.78 43.73,-47.39 45.8,-54.08"/>
<text text-anchor="middle" x="104.87" y="-95.8" font-family="Times,serif" font-size="14.00">6a: Request to send SMS </text>
<text text-anchor="middle" x="104.87" y="-80.8" font-family="Times,serif" font-size="14.00">containing generated token</text>
</g>
<!-- database -->
<g id="node6" class="node">
<title>database</title>
<ellipse fill="none" stroke="black" cx="550.37" cy="-41" rx="38.99" ry="18"/>
<text text-anchor="middle" x="550.37" y="-37.3" font-family="Times,serif" font-size="14.00">Mysql</text>
</g>
<!-- val_phone&#45;&gt;database -->
<g id="edge4" class="edge">
<title>val_phone&#45;&gt;database</title>
<path fill="none" stroke="black" d="M352.18,-124.73C348.98,-110.28 347.35,-90 358.37,-77 376.4,-55.72 450.67,-47.33 501.37,-44.06"/>
<polygon fill="black" stroke="black" points="501.71,-47.55 511.49,-43.45 501.29,-40.56 501.71,-47.55"/>
<text text-anchor="middle" x="443.37" y="-88.3" font-family="Times,serif" font-size="14.00">4: Query phone number</text>
</g>
<!-- get_code&#45;&gt;index_phone -->
<g id="edge10" class="edge">
<title>get_code&#45;&gt;index_phone</title>
<path fill="none" stroke="black" d="M395.9,-248.18C409.32,-256.78 419.45,-268.1 412.37,-281 410.04,-285.24 406.96,-289.04 403.43,-292.43"/>
<polygon fill="black" stroke="black" points="401.18,-289.76 395.69,-298.82 405.63,-295.16 401.18,-289.76"/>
<text text-anchor="middle" x="495.87" y="-269.8" font-family="Times,serif" font-size="14.00">9a/7b: Show error info</text>
</g>
<!-- get_code&#45;&gt;val_phone -->
<g id="edge3" class="edge">
<title>get_code&#45;&gt;val_phone</title>
<path fill="none" stroke="black" d="M309.12,-226.85C285.6,-223.06 259.24,-214.17 244.37,-194 231.33,-176.32 246.81,-164.78 270.07,-157.3"/>
<polygon fill="black" stroke="black" points="271.06,-160.66 279.7,-154.53 269.12,-153.93 271.06,-160.66"/>
<text text-anchor="middle" x="346.87" y="-182.8" font-family="Times,serif" font-size="14.00">3: Request to validate phone</text>
</g>
<!-- api&#45;&gt;val_phone -->
<g id="edge8" class="edge">
<title>api&#45;&gt;val_phone</title>
<path fill="none" stroke="black" d="M167.07,-59.12C179.36,-64.12 192.16,-70.12 203.37,-77 220.54,-87.55 219.72,-97.28 237.37,-107 247.69,-112.68 259.03,-117.53 270.5,-121.64"/>
<polygon fill="black" stroke="black" points="269.54,-125.01 280.14,-124.92 271.8,-118.39 269.54,-125.01"/>
<text text-anchor="middle" x="291.87" y="-88.3" font-family="Times,serif" font-size="14.00">7a: Error ouccr</text>
</g>
<!-- user -->
<g id="node5" class="node">
<title>user</title>
<polygon fill="none" stroke="black" points="406.07,-422 328.6,-422 308.67,-386 386.14,-386 406.07,-422"/>
<text text-anchor="middle" x="357.37" y="-400.3" font-family="Times,serif" font-size="14.00">User</text>
</g>
<!-- user&#45;&gt;index_phone -->
<g id="edge1" class="edge">
<title>user&#45;&gt;index_phone</title>
<path fill="none" stroke="black" d="M357.37,-385.8C357.37,-374.16 357.37,-358.55 357.37,-345.24"/>
<polygon fill="black" stroke="black" points="360.87,-345.18 357.37,-335.18 353.87,-345.18 360.87,-345.18"/>
<text text-anchor="middle" x="439.87" y="-356.8" font-family="Times,serif" font-size="14.00">1: Input phone number</text>
</g>
<!-- database&#45;&gt;val_phone -->
<g id="edge5" class="edge">
<title>database&#45;&gt;val_phone</title>
<path fill="none" stroke="black" d="M549.19,-59.24C547.22,-74.08 542.04,-94.94 528.37,-107 515.44,-118.41 480.22,-126.59 445.07,-132.16"/>
<polygon fill="black" stroke="black" points="444.54,-128.7 435.18,-133.66 445.59,-135.62 444.54,-128.7"/>
<text text-anchor="middle" x="628.87" y="-88.3" font-family="Times,serif" font-size="14.00">5a: Find phone number</text>
</g>
<!-- database&#45;&gt;val_phone -->
<g id="edge6" class="edge">
<title>database&#45;&gt;val_phone</title>
<path fill="none" stroke="black" d="M589.01,-44.32C649.33,-49.29 755.15,-64.25 716.37,-107 698.47,-126.73 545.76,-135.69 445.36,-139.49"/>
<polygon fill="black" stroke="black" points="445.07,-136 435.21,-139.86 445.33,-142.99 445.07,-136"/>
<text text-anchor="middle" x="820.87" y="-88.3" font-family="Times,serif" font-size="14.00">5b: No such phone number</text>
</g>
</g>
</svg>
