<?xml version="1.0" encoding="UTF-8" standalone="no"?>
<!DOCTYPE svg PUBLIC "-//W3C//DTD SVG 1.1//EN"
 "http://www.w3.org/Graphics/SVG/1.1/DTD/svg11.dtd">
<!-- Generated by graphviz version 2.43.0 (0)
 -->
<!-- Title: G Pages: 1 -->
<svg width="945pt" height="517pt"
 viewBox="0.00 0.00 945.34 517.00" xmlns="http://www.w3.org/2000/svg" xmlns:xlink="http://www.w3.org/1999/xlink">
<g id="graph0" class="graph" transform="scale(1 1) rotate(0) translate(4 513)">
<title>G</title>
<polygon fill="white" stroke="transparent" points="-4,4 -4,-513 941.34,-513 941.34,4 -4,4"/>
<text text-anchor="middle" x="468.67" y="-7.8" font-family="Times,serif" font-size="14.00">Phone/SMS login diagram(SUCCESS)</text>
<!-- index_phone -->
<g id="node1" class="node">
<title>index_phone</title>
<polygon fill="none" stroke="black" points="602.84,-509 459.84,-509 459.84,-473 602.84,-473 602.84,-509"/>
<text text-anchor="middle" x="531.34" y="-487.3" font-family="Times,serif" font-size="14.00">index_phone.html</text>
</g>
<!-- get_code -->
<g id="node3" class="node">
<title>get_code</title>
<polygon fill="none" stroke="black" points="400.34,-422 304.34,-422 304.34,-386 400.34,-386 400.34,-422"/>
<text text-anchor="middle" x="352.34" y="-400.3" font-family="Times,serif" font-size="14.00">get_code.js</text>
</g>
<!-- index_phone&#45;&gt;get_code -->
<g id="edge2" class="edge">
<title>index_phone&#45;&gt;get_code</title>
<path fill="none" stroke="black" d="M459.62,-489.29C398.14,-486.99 316.27,-479.27 295.34,-455 287.04,-445.38 293.11,-435.9 303.89,-427.83"/>
<polygon fill="black" stroke="black" points="306,-430.63 312.44,-422.21 302.16,-424.78 306,-430.63"/>
<text text-anchor="middle" x="360.34" y="-443.8" font-family="Times,serif" font-size="14.00">2: Click send SMS</text>
</g>
<!-- index_phone&#45;&gt;get_code -->
<g id="edge10" class="edge">
<title>index_phone&#45;&gt;get_code</title>
<path fill="none" stroke="black" d="M486.72,-472.91C474.1,-467.61 460.49,-461.46 448.34,-455 437.56,-449.27 435.98,-445.98 425.34,-440 417.15,-435.39 408.27,-430.81 399.6,-426.55"/>
<polygon fill="black" stroke="black" points="400.86,-423.26 390.33,-422.06 397.81,-429.57 400.86,-423.26"/>
<text text-anchor="middle" x="525.34" y="-443.8" font-family="Times,serif" font-size="14.00">10: Click login button</text>
</g>
<!-- val_phone -->
<g id="node2" class="node">
<title>val_phone</title>
<polygon fill="none" stroke="black" points="288.84,-335 133.84,-335 133.84,-299 288.84,-299 288.84,-335"/>
<text text-anchor="middle" x="211.34" y="-313.3" font-family="Times,serif" font-size="14.00">validate_phone.php</text>
</g>
<!-- api -->
<g id="node5" class="node">
<title>api</title>
<polygon fill="none" stroke="black" points="214.34,-233 92.34,-233 92.34,-197 214.34,-197 214.34,-233"/>
<text text-anchor="middle" x="153.34" y="-211.3" font-family="Times,serif" font-size="14.00">Third SMS API</text>
</g>
<!-- val_phone&#45;&gt;api -->
<g id="edge6" class="edge">
<title>val_phone&#45;&gt;api</title>
<path fill="none" stroke="black" d="M133.63,-312.8C83.04,-308.9 23.55,-300.23 7.34,-281 -18.93,-249.84 33.01,-233.04 82.06,-224.38"/>
<polygon fill="black" stroke="black" points="82.84,-227.8 92.13,-222.7 81.69,-220.89 82.84,-227.8"/>
<text text-anchor="middle" x="105.84" y="-269.8" font-family="Times,serif" font-size="14.00">6: Request to send SMS </text>
<text text-anchor="middle" x="105.84" y="-254.8" font-family="Times,serif" font-size="14.00">containing generated token</text>
</g>
<!-- database -->
<g id="node7" class="node">
<title>database</title>
<ellipse fill="none" stroke="black" cx="322.34" cy="-215" rx="38.99" ry="18"/>
<text text-anchor="middle" x="322.34" y="-211.3" font-family="Times,serif" font-size="14.00">Mysql</text>
</g>
<!-- val_phone&#45;&gt;database -->
<g id="edge4" class="edge">
<title>val_phone&#45;&gt;database</title>
<path fill="none" stroke="black" d="M211.3,-298.77C212.18,-284.35 215.64,-264.08 227.34,-251 239.68,-237.2 257.95,-228.83 275.18,-223.76"/>
<polygon fill="black" stroke="black" points="276.37,-227.07 285.15,-221.14 274.59,-220.3 276.37,-227.07"/>
<text text-anchor="middle" x="312.34" y="-262.3" font-family="Times,serif" font-size="14.00">4: Query phone number</text>
</g>
<!-- get_code&#45;&gt;val_phone -->
<g id="edge3" class="edge">
<title>get_code&#45;&gt;val_phone</title>
<path fill="none" stroke="black" d="M304.15,-399.93C258.56,-395.9 194.86,-386.98 179.34,-368 173.01,-360.26 176.07,-351.21 182.32,-342.95"/>
<polygon fill="black" stroke="black" points="185.05,-345.14 189.08,-335.34 179.82,-340.49 185.05,-345.14"/>
<text text-anchor="middle" x="281.84" y="-356.8" font-family="Times,serif" font-size="14.00">3: Request to validate phone</text>
</g>
<!-- login -->
<g id="node4" class="node">
<title>login</title>
<polygon fill="none" stroke="black" points="451.84,-335 368.84,-335 368.84,-299 451.84,-299 451.84,-335"/>
<text text-anchor="middle" x="410.34" y="-313.3" font-family="Times,serif" font-size="14.00">login.php</text>
</g>
<!-- get_code&#45;&gt;login -->
<g id="edge11" class="edge">
<title>get_code&#45;&gt;login</title>
<path fill="none" stroke="black" d="M372.85,-385.7C378.34,-380.41 383.97,-374.3 388.34,-368 393.29,-360.88 397.5,-352.47 400.88,-344.6"/>
<polygon fill="black" stroke="black" points="404.24,-345.64 404.71,-335.05 397.74,-343.03 404.24,-345.64"/>
<text text-anchor="middle" x="492.84" y="-356.8" font-family="Times,serif" font-size="14.00">11: Login with given token</text>
</g>
<!-- phone -->
<g id="node8" class="node">
<title>phone</title>
<polygon fill="none" stroke="black" points="532.6,-146 439.92,-146 416.08,-110 508.76,-110 532.6,-146"/>
<text text-anchor="middle" x="474.34" y="-124.3" font-family="Times,serif" font-size="14.00">Phone</text>
</g>
<!-- api&#45;&gt;phone -->
<g id="edge7" class="edge">
<title>api&#45;&gt;phone</title>
<path fill="none" stroke="black" d="M214.47,-197.81C275.74,-181.59 368.84,-156.94 425.39,-141.96"/>
<polygon fill="black" stroke="black" points="426.4,-145.32 435.17,-139.37 424.6,-138.55 426.4,-145.32"/>
<text text-anchor="middle" x="398.34" y="-167.8" font-family="Times,serif" font-size="14.00">7: Send SMS code</text>
</g>
<!-- user -->
<g id="node6" class="node">
<title>user</title>
<polygon fill="none" stroke="black" points="665.04,-59 587.57,-59 567.64,-23 645.11,-23 665.04,-59"/>
<text text-anchor="middle" x="616.34" y="-37.3" font-family="Times,serif" font-size="14.00">User</text>
</g>
<!-- user&#45;&gt;index_phone -->
<g id="edge1" class="edge">
<title>user&#45;&gt;index_phone</title>
<path fill="none" stroke="black" d="M616.34,-59.26C616.34,-76.43 616.34,-103.54 616.34,-127 616.34,-405 616.34,-405 616.34,-405 616.34,-428.08 617.08,-437.24 602.34,-455 598.46,-459.67 593.8,-463.78 588.75,-467.37"/>
<polygon fill="black" stroke="black" points="586.53,-464.63 579.95,-472.94 590.27,-470.55 586.53,-464.63"/>
<text text-anchor="middle" x="698.84" y="-262.3" font-family="Times,serif" font-size="14.00">1: Input phone number</text>
</g>
<!-- user&#45;&gt;index_phone -->
<g id="edge9" class="edge">
<title>user&#45;&gt;index_phone</title>
<path fill="none" stroke="black" d="M656.21,-42.98C711.4,-46.69 804.34,-62.52 804.34,-127 804.34,-405 804.34,-405 804.34,-405 804.34,-445.46 693.63,-468.86 613.21,-480.52"/>
<polygon fill="black" stroke="black" points="612.48,-477.09 603.07,-481.95 613.46,-484.02 612.48,-477.09"/>
<text text-anchor="middle" x="870.84" y="-262.3" font-family="Times,serif" font-size="14.00">9: Input SMS code</text>
</g>
<!-- database&#45;&gt;val_phone -->
<g id="edge5" class="edge">
<title>database&#45;&gt;val_phone</title>
<path fill="none" stroke="black" d="M357.07,-223.34C372.15,-228.44 388.39,-236.94 397.34,-251 404.5,-262.25 405.85,-270.74 397.34,-281 390.61,-289.11 343.91,-297.88 298.99,-304.62"/>
<polygon fill="black" stroke="black" points="298.24,-301.19 288.85,-306.11 299.25,-308.12 298.24,-301.19"/>
<text text-anchor="middle" x="482.84" y="-262.3" font-family="Times,serif" font-size="14.00">5: Find phone number</text>
</g>
<!-- phone&#45;&gt;user -->
<g id="edge8" class="edge">
<title>phone&#45;&gt;user</title>
<path fill="none" stroke="black" d="M472.67,-109.7C472.6,-99.01 474.42,-85.72 482.34,-77 494.2,-63.93 536.53,-54.34 570.48,-48.54"/>
<polygon fill="black" stroke="black" points="571.4,-51.93 580.7,-46.86 570.27,-45.02 571.4,-51.93"/>
<text text-anchor="middle" x="542.34" y="-80.8" font-family="Times,serif" font-size="14.00">8: Get SMS code</text>
</g>
</g>
</svg>
