<?xml version="1.0" encoding="UTF-8" standalone="no"?>
<!DOCTYPE svg PUBLIC "-//W3C//DTD SVG 1.1//EN"
 "http://www.w3.org/Graphics/SVG/1.1/DTD/svg11.dtd">
<!-- Generated by graphviz version 2.43.0 (0)
 -->
<!-- Title: G Pages: 1 -->
<svg width="687pt" height="415pt"
 viewBox="0.00 0.00 686.85 415.00" xmlns="http://www.w3.org/2000/svg" xmlns:xlink="http://www.w3.org/1999/xlink">
<g id="graph0" class="graph" transform="scale(1 1) rotate(0) translate(4 411)">
<title>G</title>
<polygon fill="white" stroke="transparent" points="-4,4 -4,-411 682.85,-411 682.85,4 -4,4"/>
<text text-anchor="middle" x="339.43" y="-7.8" font-family="Times,serif" font-size="14.00">Username/Password login diagram(SUCCESS)</text>
<!-- index -->
<g id="node1" class="node">
<title>index</title>
<polygon fill="none" stroke="black" points="326.35,-320 233.35,-320 233.35,-284 326.35,-284 326.35,-320"/>
<text text-anchor="middle" x="279.85" y="-298.3" font-family="Times,serif" font-size="14.00">index.html</text>
</g>
<!-- get_pass -->
<g id="node3" class="node">
<title>get_pass</title>
<polygon fill="none" stroke="black" points="313.85,-233 245.85,-233 245.85,-197 313.85,-197 313.85,-233"/>
<text text-anchor="middle" x="279.85" y="-211.3" font-family="Times,serif" font-size="14.00">login.js</text>
</g>
<!-- index&#45;&gt;get_pass -->
<g id="edge2" class="edge">
<title>index&#45;&gt;get_pass</title>
<path fill="none" stroke="black" d="M279.85,-283.8C279.85,-272.16 279.85,-256.55 279.85,-243.24"/>
<polygon fill="black" stroke="black" points="283.35,-243.18 279.85,-233.18 276.35,-243.18 283.35,-243.18"/>
<text text-anchor="middle" x="352.35" y="-254.8" font-family="Times,serif" font-size="14.00">2: Click login button</text>
</g>
<!-- val -->
<g id="node2" class="node">
<title>val</title>
<polygon fill="none" stroke="black" points="195.35,-146 90.35,-146 90.35,-110 195.35,-110 195.35,-146"/>
<text text-anchor="middle" x="142.85" y="-124.3" font-family="Times,serif" font-size="14.00">validate.php</text>
</g>
<!-- val&#45;&gt;get_pass -->
<g id="edge6" class="edge">
<title>val&#45;&gt;get_pass</title>
<path fill="none" stroke="black" d="M195.36,-135.23C216.82,-140.08 240.6,-148.69 257.85,-164 264.79,-170.15 269.63,-178.9 272.97,-187.36"/>
<polygon fill="black" stroke="black" points="269.71,-188.64 276.24,-196.98 276.34,-186.39 269.71,-188.64"/>
<text text-anchor="middle" x="373.85" y="-167.8" font-family="Times,serif" font-size="14.00">6: Generate and return token</text>
</g>
<!-- database -->
<g id="node6" class="node">
<title>database</title>
<ellipse fill="none" stroke="black" cx="142.85" cy="-41" rx="38.99" ry="18"/>
<text text-anchor="middle" x="142.85" y="-37.3" font-family="Times,serif" font-size="14.00">Mysql</text>
</g>
<!-- val&#45;&gt;database -->
<g id="edge4" class="edge">
<title>val&#45;&gt;database</title>
<path fill="none" stroke="black" d="M90.27,-116.23C64.75,-108.4 42.08,-95.83 54.85,-77 64.33,-63.03 80.37,-54.63 96.17,-49.59"/>
<polygon fill="black" stroke="black" points="97.23,-52.93 105.92,-46.86 95.35,-46.19 97.23,-52.93"/>
<text text-anchor="middle" x="132.85" y="-80.8" font-family="Times,serif" font-size="14.00">4: Query user/passwd</text>
</g>
<!-- get_pass&#45;&gt;val -->
<g id="edge3" class="edge">
<title>get_pass&#45;&gt;val</title>
<path fill="none" stroke="black" d="M245.78,-212.11C176.07,-207.9 22.42,-196.69 6.85,-179 -18.15,-150.59 33.21,-138.3 79.82,-133"/>
<polygon fill="black" stroke="black" points="80.38,-136.46 89.97,-131.94 79.66,-129.5 80.38,-136.46"/>
<text text-anchor="middle" x="132.35" y="-167.8" font-family="Times,serif" font-size="14.00">3: Request to validate user/passwd</text>
</g>
<!-- login -->
<g id="node4" class="node">
<title>login</title>
<polygon fill="none" stroke="black" points="554.35,-146 471.35,-146 471.35,-110 554.35,-110 554.35,-146"/>
<text text-anchor="middle" x="512.85" y="-124.3" font-family="Times,serif" font-size="14.00">login.php</text>
</g>
<!-- get_pass&#45;&gt;login -->
<g id="edge7" class="edge">
<title>get_pass&#45;&gt;login</title>
<path fill="none" stroke="black" d="M314.2,-211.53C364.73,-207.32 456,-197.39 482.85,-179 491.32,-173.2 497.78,-164.16 502.5,-155.35"/>
<polygon fill="black" stroke="black" points="505.8,-156.58 506.95,-146.04 499.48,-153.55 505.8,-156.58"/>
<text text-anchor="middle" x="587.85" y="-167.8" font-family="Times,serif" font-size="14.00">7: Login with given token</text>
</g>
<!-- user -->
<g id="node5" class="node">
<title>user</title>
<polygon fill="none" stroke="black" points="328.55,-407 251.08,-407 231.15,-371 308.62,-371 328.55,-407"/>
<text text-anchor="middle" x="279.85" y="-385.3" font-family="Times,serif" font-size="14.00">User</text>
</g>
<!-- user&#45;&gt;index -->
<g id="edge1" class="edge">
<title>user&#45;&gt;index</title>
<path fill="none" stroke="black" d="M279.85,-370.8C279.85,-359.16 279.85,-343.55 279.85,-330.24"/>
<polygon fill="black" stroke="black" points="283.35,-330.18 279.85,-320.18 276.35,-330.18 283.35,-330.18"/>
<text text-anchor="middle" x="355.35" y="-341.8" font-family="Times,serif" font-size="14.00">1: Input user/passwd</text>
</g>
<!-- database&#45;&gt;val -->
<g id="edge5" class="edge">
<title>database&#45;&gt;val</title>
<path fill="none" stroke="black" d="M174.98,-51.3C197.65,-59.67 222.15,-73.49 210.85,-92 208.11,-96.49 204.59,-100.43 200.6,-103.88"/>
<polygon fill="black" stroke="black" points="198.38,-101.17 192.42,-109.93 202.54,-106.8 198.38,-101.17"/>
<text text-anchor="middle" x="283.85" y="-80.8" font-family="Times,serif" font-size="14.00">5: find user/passwd</text>
</g>
</g>
</svg>
