<?xml version="1.0" encoding="UTF-8" standalone="no"?>
<!DOCTYPE svg PUBLIC "-//W3C//DTD SVG 1.1//EN"
 "http://www.w3.org/Graphics/SVG/1.1/DTD/svg11.dtd">
<!-- Generated by graphviz version 2.43.0 (0)
 -->
<!-- Title: G Pages: 1 -->
<svg width="507pt" height="415pt"
 viewBox="0.00 0.00 507.10 415.00" xmlns="http://www.w3.org/2000/svg" xmlns:xlink="http://www.w3.org/1999/xlink">
<g id="graph0" class="graph" transform="scale(1 1) rotate(0) translate(4 411)">
<title>G</title>
<polygon fill="white" stroke="transparent" points="-4,4 -4,-411 503.1,-411 503.1,4 -4,4"/>
<text text-anchor="middle" x="249.55" y="-7.8" font-family="Times,serif" font-size="14.00">Username/Password login diagram(FAILED)</text>
<!-- index -->
<g id="node1" class="node">
<title>index</title>
<polygon fill="none" stroke="black" points="188.6,-320 95.6,-320 95.6,-284 188.6,-284 188.6,-320"/>
<text text-anchor="middle" x="142.1" y="-298.3" font-family="Times,serif" font-size="14.00">index.html</text>
</g>
<!-- get_pass -->
<g id="node3" class="node">
<title>get_pass</title>
<polygon fill="none" stroke="black" points="176.1,-233 108.1,-233 108.1,-197 176.1,-197 176.1,-233"/>
<text text-anchor="middle" x="142.1" y="-211.3" font-family="Times,serif" font-size="14.00">login.js</text>
</g>
<!-- index&#45;&gt;get_pass -->
<g id="edge2" class="edge">
<title>index&#45;&gt;get_pass</title>
<path fill="none" stroke="black" d="M95.53,-291.89C81.44,-286.73 67.49,-278.64 59.1,-266 46.15,-246.49 71.83,-233.41 97.96,-225.54"/>
<polygon fill="black" stroke="black" points="99.21,-228.82 107.91,-222.78 97.34,-222.08 99.21,-228.82"/>
<text text-anchor="middle" x="131.6" y="-254.8" font-family="Times,serif" font-size="14.00">2: Click login button</text>
</g>
<!-- val -->
<g id="node2" class="node">
<title>val</title>
<polygon fill="none" stroke="black" points="194.6,-146 89.6,-146 89.6,-110 194.6,-110 194.6,-146"/>
<text text-anchor="middle" x="142.1" y="-124.3" font-family="Times,serif" font-size="14.00">validate.php</text>
</g>
<!-- val&#45;&gt;get_pass -->
<g id="edge6" class="edge">
<title>val&#45;&gt;get_pass</title>
<path fill="none" stroke="black" d="M194.92,-134.12C233.72,-140.11 276.54,-152.76 257.1,-179 240.89,-200.89 211.31,-209.55 186.22,-212.79"/>
<polygon fill="black" stroke="black" points="185.73,-209.32 176.15,-213.84 186.46,-216.29 185.73,-209.32"/>
<text text-anchor="middle" x="380.1" y="-167.8" font-family="Times,serif" font-size="14.00">6: Generate error info and return</text>
</g>
<!-- database -->
<g id="node5" class="node">
<title>database</title>
<ellipse fill="none" stroke="black" cx="142.1" cy="-41" rx="38.99" ry="18"/>
<text text-anchor="middle" x="142.1" y="-37.3" font-family="Times,serif" font-size="14.00">Mysql</text>
</g>
<!-- val&#45;&gt;database -->
<g id="edge4" class="edge">
<title>val&#45;&gt;database</title>
<path fill="none" stroke="black" d="M89.56,-117.38C75.75,-112.21 62.41,-104.25 54.1,-92 40.2,-71.51 68.26,-58.43 96.29,-50.81"/>
<polygon fill="black" stroke="black" points="97.3,-54.17 106.14,-48.34 95.59,-47.38 97.3,-54.17"/>
<text text-anchor="middle" x="132.1" y="-80.8" font-family="Times,serif" font-size="14.00">4: Query user/passwd</text>
</g>
<!-- get_pass&#45;&gt;index -->
<g id="edge7" class="edge">
<title>get_pass&#45;&gt;index</title>
<path fill="none" stroke="black" d="M176.45,-227.95C195.49,-236.66 213.58,-249.76 204.1,-266 201.59,-270.31 198.32,-274.13 194.61,-277.51"/>
<polygon fill="black" stroke="black" points="192.2,-274.95 186.45,-283.84 196.49,-280.48 192.2,-274.95"/>
<text text-anchor="middle" x="271.1" y="-254.8" font-family="Times,serif" font-size="14.00">7: Show error info</text>
</g>
<!-- get_pass&#45;&gt;val -->
<g id="edge3" class="edge">
<title>get_pass&#45;&gt;val</title>
<path fill="none" stroke="black" d="M108.09,-209.99C72,-204.96 18.5,-194.99 6.1,-179 -17.02,-149.18 33.64,-137.14 79.56,-132.28"/>
<polygon fill="black" stroke="black" points="79.94,-135.76 89.56,-131.32 79.28,-128.79 79.94,-135.76"/>
<text text-anchor="middle" x="131.6" y="-167.8" font-family="Times,serif" font-size="14.00">3: Request to validate user/passwd</text>
</g>
<!-- user -->
<g id="node4" class="node">
<title>user</title>
<polygon fill="none" stroke="black" points="190.8,-407 113.33,-407 93.4,-371 170.87,-371 190.8,-407"/>
<text text-anchor="middle" x="142.1" y="-385.3" font-family="Times,serif" font-size="14.00">User</text>
</g>
<!-- user&#45;&gt;index -->
<g id="edge1" class="edge">
<title>user&#45;&gt;index</title>
<path fill="none" stroke="black" d="M142.1,-370.8C142.1,-359.16 142.1,-343.55 142.1,-330.24"/>
<polygon fill="black" stroke="black" points="145.6,-330.18 142.1,-320.18 138.6,-330.18 145.6,-330.18"/>
<text text-anchor="middle" x="217.6" y="-341.8" font-family="Times,serif" font-size="14.00">1: Input user/passwd</text>
</g>
<!-- database&#45;&gt;val -->
<g id="edge5" class="edge">
<title>database&#45;&gt;val</title>
<path fill="none" stroke="black" d="M174.23,-51.3C196.9,-59.67 221.4,-73.49 210.1,-92 207.36,-96.49 203.84,-100.43 199.85,-103.88"/>
<polygon fill="black" stroke="black" points="197.63,-101.17 191.67,-109.93 201.79,-106.8 197.63,-101.17"/>
<text text-anchor="middle" x="297.1" y="-80.8" font-family="Times,serif" font-size="14.00">5: No such user/passwd</text>
</g>
</g>
</svg>
